<svg width="242" height="244" viewBox="0 0 242 244" fill="none" xmlns="http://www.w3.org/2000/svg">
<circle cx="120.017" cy="119.204" r="106.734" fill="#BBDBF0" stroke="#65A9D0" stroke-width="3"></circle>
<path d="M154.323 14.9627C146.775 4.7414 132.236 8.67711 126.134 11.5143C129.409 26.5538 152.168 35.0013 164.504 37.8721C163.195 34.4154 161.87 25.1841 154.323 14.9627Z" fill="url(#paint0_linear_233_158)"></path>
<path d="M149.741 29.4721C148.315 16.8465 134.553 12.5022 127.85 11.9082C123.166 26.5702 140.492 47.5449 149.741 56.1995C150.335 52.551 151.166 42.0976 149.741 29.4721Z" fill="url(#paint1_linear_233_158)"></path>
<path d="M85.711 14.9627C93.2583 4.7414 107.797 8.67711 113.899 11.5143C110.625 26.5538 87.8659 35.0013 75.5291 37.8721C76.839 34.4154 78.1637 25.1841 85.711 14.9627Z" fill="url(#paint2_linear_233_158)"></path>
<path d="M90.2929 29.4721C91.7184 16.8465 105.481 12.5022 112.184 11.9082C116.868 26.5702 99.5415 47.5449 90.2929 56.1995C89.699 52.551 88.8674 42.0976 90.2929 29.4721Z" fill="url(#paint3_linear_233_158)"></path>
<path d="M121.231 55.1812C129.716 39.3143 141.595 7.63157 121.231 7.83524C100.868 8.03891 112.747 39.4841 121.231 55.1812Z" fill="url(#paint4_linear_233_158)"></path>
<path d="M226.966 153.51C237.188 145.963 233.252 131.424 230.415 125.322C215.375 128.597 206.928 151.355 204.057 163.692C207.514 162.382 216.745 161.057 226.966 153.51Z" fill="url(#paint5_linear_233_158)"></path>
<path d="M212.457 148.928C225.083 147.503 229.427 133.74 230.021 127.037C215.359 122.354 194.384 139.68 185.73 148.928C189.378 149.522 199.832 150.354 212.457 148.928Z" fill="url(#paint6_linear_233_158)"></path>
<path d="M226.966 84.8987C237.188 92.4459 233.252 106.985 230.415 113.087C215.375 109.812 206.928 87.0535 204.057 74.7168C207.514 76.0266 216.745 77.3514 226.966 84.8987Z" fill="url(#paint7_linear_233_158)"></path>
<path d="M212.457 89.4805C225.083 90.9059 229.427 104.669 230.021 111.372C215.359 116.055 194.384 98.7291 185.73 89.4805C189.378 88.8866 199.832 88.055 212.457 89.4805Z" fill="url(#paint8_linear_233_158)"></path>
<path d="M186.748 120.419C202.615 128.904 234.298 140.783 234.094 120.419C233.89 100.055 202.445 111.934 186.748 120.419Z" fill="url(#paint9_linear_233_158)"></path>
<path d="M14.9627 84.8987C4.74137 92.446 8.67708 106.985 11.5142 113.087C26.5537 109.812 35.0012 87.0536 37.872 74.7168C34.4154 76.0267 25.184 77.3515 14.9627 84.8987Z" fill="url(#paint10_linear_233_158)"></path>
<path d="M29.472 89.4806C16.8465 90.906 12.5022 104.669 11.9082 111.372C26.5702 116.055 47.5449 98.7291 56.1994 89.4806C52.5509 88.8866 42.0976 88.0551 29.472 89.4806Z" fill="url(#paint11_linear_233_158)"></path>
<path d="M14.9627 153.51C4.74137 145.963 8.67708 131.424 11.5142 125.322C26.5537 128.597 35.0012 151.355 37.872 163.692C34.4154 162.382 25.184 161.058 14.9627 153.51Z" fill="url(#paint12_linear_233_158)"></path>
<path d="M29.472 148.928C16.8465 147.503 12.5022 133.74 11.9082 127.037C26.5702 122.354 47.5449 139.68 56.1994 148.928C52.5509 149.522 42.0976 150.354 29.472 148.928Z" fill="url(#paint13_linear_233_158)"></path>
<path d="M55.1812 117.99C39.3143 109.505 7.63154 97.626 7.83521 117.99C8.03888 138.354 39.484 126.475 55.1812 117.99Z" fill="url(#paint14_linear_233_158)"></path>
<path d="M85.711 228.867C93.2583 239.089 107.797 235.153 113.899 232.316C110.625 217.276 87.8659 208.829 75.5291 205.958C76.839 209.415 78.1637 218.646 85.711 228.867Z" fill="url(#paint15_linear_233_158)"></path>
<path d="M90.2928 214.358C91.7182 226.984 105.481 231.328 112.184 231.922C116.868 217.26 99.5413 196.285 90.2928 187.631C89.6988 191.279 88.8673 201.732 90.2928 214.358Z" fill="url(#paint16_linear_233_158)"></path>
<path d="M154.323 228.867C146.775 239.089 132.236 235.153 126.134 232.316C129.409 217.276 152.168 208.829 164.504 205.958C163.195 209.415 161.87 218.646 154.323 228.867Z" fill="url(#paint17_linear_233_158)"></path>
<path d="M149.741 214.358C148.315 226.984 134.553 231.328 127.85 231.922C123.166 217.26 140.492 196.285 149.741 187.631C150.335 191.279 151.166 201.732 149.741 214.358Z" fill="url(#paint18_linear_233_158)"></path>
<path d="M118.802 188.649C110.317 204.516 98.4383 236.199 118.802 235.995C139.166 235.791 127.287 204.346 118.802 188.649Z" fill="url(#paint19_linear_233_158)"></path>
<circle cx="120.129" cy="121.009" r="0.835938" fill="#D9D9D9"></circle>
<path d="M120.497 82.7528C120.804 85.1294 123.808 121.985 123.808 121.985C116.059 113.824 104.646 103.824 96.3629 94.0139C91.9284 88.7617 91.826 81.9683 94.257 76.5356C95.7037 73.3024 97.5519 70.1138 98.0138 65.5016C102.083 68.2277 103.85 67.685 108.984 69.5588C118.484 73.0258 120.191 80.3763 120.497 82.7528Z" fill="url(#paint20_linear_233_158)"></path>
<path d="M121.488 94.6291C121.701 96.3021 123.811 121.996 123.811 121.996C118.423 116.251 110.034 109.479 104.275 102.573C101.192 98.8757 101.102 93.8184 102.792 89.9943C103.797 87.7185 105.082 85.4741 105.403 82.2276C108.232 84.1467 109.46 83.7649 113.03 85.0841C119.635 87.5251 121.275 92.9562 121.488 94.6291Z" fill="url(#paint21_linear_233_158)"></path>
<path d="M148.03 93.2809C146.554 95.1682 122.431 123.195 122.431 123.195C122.797 111.946 121.898 96.7982 123.063 84.0124C123.686 77.1669 128.449 72.3223 134.024 70.2366C137.342 68.9954 140.909 68.0711 144.516 65.1603C145.435 69.9718 147.062 70.848 149.334 75.8185C153.539 85.0155 149.506 91.3935 148.03 93.2809Z" fill="url(#paint22_linear_233_158)"></path>
<path d="M140.273 102.328C139.232 103.655 122.425 123.204 122.425 123.204C122.255 114.612 121.658 104.606 122.528 95.6564C122.994 90.8647 126.53 87.2481 130.439 85.7648C132.765 84.8821 135.265 84.22 137.801 82.168C138.423 85.53 139.557 86.136 141.126 89.6033C144.027 96.019 141.314 101.001 140.273 102.328Z" fill="url(#paint23_linear_233_158)"></path>
<path d="M162.151 118.342C159.77 118.615 122.875 121.094 122.875 121.094C131.146 113.462 141.308 102.192 151.235 94.0499C156.55 89.6907 163.344 89.6852 168.742 92.1934C171.954 93.6861 175.116 95.5795 179.721 96.1072C176.937 100.138 177.454 101.912 175.508 107.019C171.906 116.468 164.531 118.07 162.151 118.342Z" fill="url(#paint24_linear_233_158)"></path>
<path d="M150.261 119.164C148.586 119.353 122.864 121.096 122.864 121.096C128.686 115.791 135.577 107.499 142.564 101.84C146.305 98.8092 151.363 98.791 155.162 100.535C157.424 101.573 159.65 102.89 162.891 103.257C160.932 106.059 161.296 107.292 159.926 110.843C157.391 117.412 151.937 118.974 150.261 119.164Z" fill="url(#paint25_linear_233_158)"></path>
<path d="M151.512 146.329C149.64 144.834 121.854 120.433 121.854 120.433C133.099 120.912 148.255 120.163 161.029 121.455C167.868 122.146 172.665 126.958 174.695 132.553C175.903 135.882 176.792 139.459 179.666 143.095C174.846 143.965 173.954 145.584 168.961 147.807C159.723 151.92 153.385 147.824 151.512 146.329Z" fill="url(#paint26_linear_233_158)"></path>
<path d="M142.543 138.482C141.226 137.428 121.845 120.428 121.845 120.428C130.439 120.343 140.45 119.845 149.39 120.805C154.177 121.318 157.759 124.89 159.203 128.813C160.062 131.148 160.7 133.655 162.726 136.211C159.358 136.799 158.741 137.928 155.258 139.461C148.814 142.299 143.859 139.536 142.543 138.482Z" fill="url(#paint27_linear_233_158)"></path>
<path d="M125.365 159.394C125.092 157.014 122.617 120.118 122.617 120.118C130.248 128.39 141.517 138.553 149.658 148.481C154.017 153.796 154.022 160.59 151.513 165.987C150.02 169.199 148.126 172.361 147.598 176.966C143.568 174.182 141.794 174.699 136.687 172.752C127.238 169.149 125.637 161.775 125.365 159.394Z" fill="url(#paint28_linear_233_158)"></path>
<path d="M124.544 147.505C124.355 145.829 122.614 120.107 122.614 120.107C127.919 125.93 136.21 132.821 141.869 139.809C144.899 143.55 144.917 148.608 143.172 152.408C142.134 154.669 140.818 156.894 140.45 160.136C137.648 158.177 136.415 158.541 132.865 157.17C126.296 154.635 124.734 149.181 124.544 147.505Z" fill="url(#paint29_linear_233_158)"></path>
<path d="M97.5993 150.012C99.0912 148.137 123.444 120.31 123.444 120.31C122.985 131.555 123.759 146.71 122.49 159.486C121.81 166.326 117.007 171.131 111.415 173.171C108.088 174.385 104.512 175.279 100.881 178.161C100.003 173.342 98.3828 172.452 96.1512 167.463C92.0221 158.232 96.1074 151.887 97.5993 150.012Z" fill="url(#paint30_linear_233_158)"></path>
<path d="M105.431 141.029C106.483 139.711 123.45 120.3 123.45 120.3C123.549 128.894 124.064 138.904 123.12 147.846C122.615 152.634 119.049 156.222 115.128 157.673C112.794 158.536 110.289 159.178 107.736 161.209C107.142 157.842 106.013 157.226 104.473 153.746C101.624 147.307 104.379 142.347 105.431 141.029Z" fill="url(#paint31_linear_233_158)"></path>
<path d="M84.7147 124.271C87.0982 124.024 124.018 121.94 124.018 121.94C115.665 129.483 105.383 140.644 95.3696 148.679C90.0083 152.981 83.2145 152.914 77.8441 150.348C74.6481 148.821 71.5066 146.893 66.9074 146.316C69.7342 142.316 69.2359 140.537 71.2373 135.451C74.9404 126.041 82.3312 124.518 84.7147 124.271Z" fill="url(#paint32_linear_233_158)"></path>
<path d="M96.6121 123.577C98.2898 123.406 124.029 121.938 124.029 121.938C118.15 127.181 111.171 135.398 104.124 140.983C100.351 143.973 95.2925 143.937 91.5118 142.152C89.2619 141.09 87.0502 139.749 83.8128 139.347C85.8019 136.567 85.4509 135.329 86.8589 131.794C89.464 125.252 94.9344 123.748 96.6121 123.577Z" fill="url(#paint33_linear_233_158)"></path>
<path d="M95.7839 96.787C97.6488 98.2916 125.309 122.833 125.309 122.833C114.067 122.298 98.9077 122.969 86.1408 121.612C79.3054 120.886 74.5331 116.05 72.5315 110.445C71.3403 107.109 70.4698 103.528 67.6136 99.8771C72.4383 99.0314 73.339 97.4177 78.3431 95.2201C87.6023 91.154 93.9189 95.2824 95.7839 96.787Z" fill="url(#paint34_linear_233_158)"></path>
<path d="M104.713 104.68C106.024 105.741 125.319 122.839 125.319 122.839C116.725 122.88 106.711 123.327 97.7754 122.322C92.9912 121.784 89.4283 118.194 88.004 114.263C87.1563 111.924 86.5319 109.414 84.5183 106.847C87.8893 106.276 88.5122 105.151 92.0028 103.635C98.4615 100.83 103.402 103.619 104.713 104.68Z" fill="url(#paint35_linear_233_158)"></path>
<defs>
<linearGradient id="paint0_linear_233_158" x1="156.738" y1="42.356" x2="135.732" y2="5.97279" gradientUnits="userSpaceOnUse">
<stop stop-color="#6652A0"></stop>
<stop offset="1" stop-color="#482D97"></stop>
</linearGradient>
<linearGradient id="paint1_linear_233_158" x1="145.28" y1="56.1995" x2="138.795" y2="11.9082" gradientUnits="userSpaceOnUse">
<stop stop-color="#A787FF"></stop>
<stop offset="1" stop-color="#5D41AA"></stop>
</linearGradient>
<linearGradient id="paint2_linear_233_158" x1="83.2955" y1="42.356" x2="104.301" y2="5.97279" gradientUnits="userSpaceOnUse">
<stop stop-color="#6652A0"></stop>
<stop offset="1" stop-color="#482D97"></stop>
</linearGradient>
<linearGradient id="paint3_linear_233_158" x1="94.7542" y1="56.1995" x2="101.239" y2="11.9082" gradientUnits="userSpaceOnUse">
<stop stop-color="#A787FF"></stop>
<stop offset="1" stop-color="#5D41AA"></stop>
</linearGradient>
<linearGradient id="paint4_linear_233_158" x1="121.231" y1="55.1812" x2="121.231" y2="7.83426" gradientUnits="userSpaceOnUse">
<stop stop-color="#CBBAFF"></stop>
<stop offset="1" stop-color="#8C6CE7"></stop>
</linearGradient>
<linearGradient id="paint5_linear_233_158" x1="199.573" y1="155.926" x2="235.956" y2="134.92" gradientUnits="userSpaceOnUse">
<stop stop-color="#6652A0"></stop>
<stop offset="1" stop-color="#482D97"></stop>
</linearGradient>
<linearGradient id="paint6_linear_233_158" x1="185.73" y1="144.467" x2="230.021" y2="137.982" gradientUnits="userSpaceOnUse">
<stop stop-color="#A787FF"></stop>
<stop offset="1" stop-color="#5D41AA"></stop>
</linearGradient>
<linearGradient id="paint7_linear_233_158" x1="199.573" y1="82.4831" x2="235.956" y2="103.489" gradientUnits="userSpaceOnUse">
<stop stop-color="#6652A0"></stop>
<stop offset="1" stop-color="#482D97"></stop>
</linearGradient>
<linearGradient id="paint8_linear_233_158" x1="185.73" y1="93.9417" x2="230.021" y2="100.427" gradientUnits="userSpaceOnUse">
<stop stop-color="#A787FF"></stop>
<stop offset="1" stop-color="#5D41AA"></stop>
</linearGradient>
<linearGradient id="paint9_linear_233_158" x1="186.748" y1="120.419" x2="234.095" y2="120.419" gradientUnits="userSpaceOnUse">
<stop stop-color="#CBBAFF"></stop>
<stop offset="1" stop-color="#8C6CE7"></stop>
</linearGradient>
<linearGradient id="paint10_linear_233_158" x1="42.3559" y1="82.4832" x2="5.97276" y2="103.489" gradientUnits="userSpaceOnUse">
<stop stop-color="#6652A0"></stop>
<stop offset="1" stop-color="#482D97"></stop>
</linearGradient>
<linearGradient id="paint11_linear_233_158" x1="56.1994" y1="93.9418" x2="11.9082" y2="100.427" gradientUnits="userSpaceOnUse">
<stop stop-color="#A787FF"></stop>
<stop offset="1" stop-color="#5D41AA"></stop>
</linearGradient>
<linearGradient id="paint12_linear_233_158" x1="42.3559" y1="155.926" x2="5.97276" y2="134.92" gradientUnits="userSpaceOnUse">
<stop stop-color="#6652A0"></stop>
<stop offset="1" stop-color="#482D97"></stop>
</linearGradient>
<linearGradient id="paint13_linear_233_158" x1="56.1994" y1="144.467" x2="11.9082" y2="137.982" gradientUnits="userSpaceOnUse">
<stop stop-color="#A787FF"></stop>
<stop offset="1" stop-color="#5D41AA"></stop>
</linearGradient>
<linearGradient id="paint14_linear_233_158" x1="55.1812" y1="117.99" x2="7.83423" y2="117.99" gradientUnits="userSpaceOnUse">
<stop stop-color="#CBBAFF"></stop>
<stop offset="1" stop-color="#8C6CE7"></stop>
</linearGradient>
<linearGradient id="paint15_linear_233_158" x1="83.2955" y1="201.474" x2="104.301" y2="237.857" gradientUnits="userSpaceOnUse">
<stop stop-color="#6652A0"></stop>
<stop offset="1" stop-color="#482D97"></stop>
</linearGradient>
<linearGradient id="paint16_linear_233_158" x1="94.754" y1="187.631" x2="101.239" y2="231.922" gradientUnits="userSpaceOnUse">
<stop stop-color="#A787FF"></stop>
<stop offset="1" stop-color="#5D41AA"></stop>
</linearGradient>
<linearGradient id="paint17_linear_233_158" x1="156.738" y1="201.474" x2="135.732" y2="237.857" gradientUnits="userSpaceOnUse">
<stop stop-color="#6652A0"></stop>
<stop offset="1" stop-color="#482D97"></stop>
</linearGradient>
<linearGradient id="paint18_linear_233_158" x1="145.279" y1="187.631" x2="138.794" y2="231.922" gradientUnits="userSpaceOnUse">
<stop stop-color="#A787FF"></stop>
<stop offset="1" stop-color="#5D41AA"></stop>
</linearGradient>
<linearGradient id="paint19_linear_233_158" x1="118.802" y1="188.649" x2="118.802" y2="235.996" gradientUnits="userSpaceOnUse">
<stop stop-color="#CBBAFF"></stop>
<stop offset="1" stop-color="#8C6CE7"></stop>
</linearGradient>
<linearGradient id="paint20_linear_233_158" x1="98.3549" y1="65.4993" x2="123.814" y2="122.888" gradientUnits="userSpaceOnUse">
<stop stop-color="#7CB8DE"></stop>
<stop offset="1" stop-color="#127EC4"></stop>
</linearGradient>
<linearGradient id="paint21_linear_233_158" x1="105.64" y1="82.226" x2="123.709" y2="122.46" gradientUnits="userSpaceOnUse">
<stop stop-color="#F9BC95"></stop>
<stop offset="1" stop-color="#E87F3A"></stop>
</linearGradient>
<linearGradient id="paint22_linear_233_158" x1="144.758" y1="65.4015" x2="121.793" y2="123.833" gradientUnits="userSpaceOnUse">
<stop stop-color="#7CB8DE"></stop>
<stop offset="1" stop-color="#127EC4"></stop>
</linearGradient>
<linearGradient id="paint23_linear_233_158" x1="137.969" y1="82.3357" x2="122.023" y2="123.458" gradientUnits="userSpaceOnUse">
<stop stop-color="#F9BC95"></stop>
<stop offset="1" stop-color="#E87F3A"></stop>
</linearGradient>
<linearGradient id="paint24_linear_233_158" x1="179.718" y1="96.4483" x2="121.972" y2="121.087" gradientUnits="userSpaceOnUse">
<stop stop-color="#7CB8DE"></stop>
<stop offset="1" stop-color="#127EC4"></stop>
</linearGradient>
<linearGradient id="paint25_linear_233_158" x1="162.889" y1="103.494" x2="122.402" y2="120.988" gradientUnits="userSpaceOnUse">
<stop stop-color="#F9BC95"></stop>
<stop offset="1" stop-color="#E87F3A"></stop>
</linearGradient>
<linearGradient id="paint26_linear_233_158" x1="179.423" y1="143.334" x2="121.222" y2="119.789" gradientUnits="userSpaceOnUse">
<stop stop-color="#7CB8DE"></stop>
<stop offset="1" stop-color="#127EC4"></stop>
</linearGradient>
<linearGradient id="paint27_linear_233_158" x1="162.557" y1="136.377" x2="121.595" y2="120.023" gradientUnits="userSpaceOnUse">
<stop stop-color="#F9BC95"></stop>
<stop offset="1" stop-color="#E87F3A"></stop>
</linearGradient>
<linearGradient id="paint28_linear_233_158" x1="147.257" y1="176.964" x2="122.623" y2="119.215" gradientUnits="userSpaceOnUse">
<stop stop-color="#7CB8DE"></stop>
<stop offset="1" stop-color="#127EC4"></stop>
</linearGradient>
<linearGradient id="paint29_linear_233_158" x1="140.213" y1="160.134" x2="122.723" y2="119.645" gradientUnits="userSpaceOnUse">
<stop stop-color="#F9BC95"></stop>
<stop offset="1" stop-color="#E87F3A"></stop>
</linearGradient>
<linearGradient id="paint30_linear_233_158" x1="100.642" y1="177.917" x2="124.087" y2="119.676" gradientUnits="userSpaceOnUse">
<stop stop-color="#7CB8DE"></stop>
<stop offset="1" stop-color="#127EC4"></stop>
</linearGradient>
<linearGradient id="paint31_linear_233_158" x1="107.57" y1="161.04" x2="123.854" y2="120.05" gradientUnits="userSpaceOnUse">
<stop stop-color="#F9BC95"></stop>
<stop offset="1" stop-color="#E87F3A"></stop>
</linearGradient>
<linearGradient id="paint32_linear_233_158" x1="66.9136" y1="145.975" x2="124.921" y2="121.957" gradientUnits="userSpaceOnUse">
<stop stop-color="#7CB8DE"></stop>
<stop offset="1" stop-color="#127EC4"></stop>
</linearGradient>
<linearGradient id="paint33_linear_233_158" x1="83.8171" y1="139.11" x2="124.49" y2="122.051" gradientUnits="userSpaceOnUse">
<stop stop-color="#F9BC95"></stop>
<stop offset="1" stop-color="#E87F3A"></stop>
</linearGradient>
<linearGradient id="paint34_linear_233_158" x1="67.8584" y1="99.6395" x2="125.938" y2="123.481" gradientUnits="userSpaceOnUse">
<stop stop-color="#7CB8DE"></stop>
<stop offset="1" stop-color="#127EC4"></stop>
</linearGradient>
<linearGradient id="paint35_linear_233_158" x1="84.6885" y1="106.682" x2="125.566" y2="123.245" gradientUnits="userSpaceOnUse">
<stop stop-color="#F9BC95"></stop>
<stop offset="1" stop-color="#E87F3A"></stop>
</linearGradient>
</defs>
</svg>