<svg width="242" height="244" viewBox="0 0 242 244" fill="none" xmlns="http://www.w3.org/2000/svg">
<circle cx="120.017" cy="119.204" r="106.734" fill="url(#paint0_radial_186_744)" stroke="#65A9D0" stroke-width="3"></circle>
<path d="M154.323 14.9628C146.775 4.74143 132.236 8.67714 126.134 11.5143C129.409 26.5538 152.168 35.0013 164.504 37.8721C163.195 34.4154 161.87 25.1841 154.323 14.9628Z" fill="url(#paint1_linear_186_744)"></path>
<path d="M149.741 29.4721C148.315 16.8465 134.553 12.5022 127.85 11.9083C123.166 26.5703 140.492 47.5449 149.741 56.1995C150.335 52.551 151.166 42.0977 149.741 29.4721Z" fill="url(#paint2_linear_186_744)"></path>
<path d="M85.711 14.9628C93.2583 4.74143 107.797 8.67714 113.899 11.5143C110.625 26.5538 87.8659 35.0013 75.5291 37.8721C76.839 34.4154 78.1637 25.1841 85.711 14.9628Z" fill="url(#paint3_linear_186_744)"></path>
<path d="M90.2929 29.4721C91.7184 16.8465 105.481 12.5022 112.184 11.9083C116.868 26.5703 99.5415 47.5449 90.2929 56.1995C89.699 52.551 88.8674 42.0977 90.2929 29.4721Z" fill="url(#paint4_linear_186_744)"></path>
<path d="M121.231 55.1812C129.716 39.3144 141.595 7.6316 121.231 7.83527C100.868 8.03894 112.747 39.4841 121.231 55.1812Z" fill="url(#paint5_linear_186_744)"></path>
<path d="M226.966 153.51C237.188 145.963 233.252 131.424 230.415 125.322C215.375 128.597 206.928 151.355 204.057 163.692C207.514 162.382 216.745 161.057 226.966 153.51Z" fill="url(#paint6_linear_186_744)"></path>
<path d="M212.457 148.928C225.083 147.503 229.427 133.74 230.021 127.037C215.359 122.354 194.384 139.68 185.73 148.928C189.378 149.522 199.832 150.354 212.457 148.928Z" fill="url(#paint7_linear_186_744)"></path>
<path d="M226.966 84.8986C237.188 92.4459 233.252 106.985 230.415 113.087C215.375 109.812 206.928 87.0535 204.057 74.7167C207.514 76.0266 216.745 77.3514 226.966 84.8986Z" fill="url(#paint8_linear_186_744)"></path>
<path d="M212.457 89.4805C225.083 90.9059 229.427 104.668 230.021 111.372C215.359 116.055 194.384 98.729 185.73 89.4805C189.378 88.8865 199.832 88.055 212.457 89.4805Z" fill="url(#paint9_linear_186_744)"></path>
<path d="M186.748 120.419C202.615 128.904 234.298 140.783 234.094 120.419C233.89 100.055 202.445 111.934 186.748 120.419Z" fill="url(#paint10_linear_186_744)"></path>
<path d="M14.9628 84.8987C4.74143 92.446 8.67714 106.985 11.5143 113.087C26.5538 109.812 35.0013 87.0536 37.8721 74.7169C34.4154 76.0267 25.1841 77.3515 14.9628 84.8987Z" fill="url(#paint11_linear_186_744)"></path>
<path d="M29.4721 89.4806C16.8465 90.906 12.5022 104.669 11.9083 111.372C26.5703 116.055 47.5449 98.7292 56.1995 89.4806C52.551 88.8866 42.0977 88.0551 29.4721 89.4806Z" fill="url(#paint12_linear_186_744)"></path>
<path d="M14.9628 153.51C4.74143 145.963 8.67714 131.424 11.5143 125.322C26.5538 128.597 35.0013 151.355 37.8721 163.692C34.4154 162.382 25.1841 161.058 14.9628 153.51Z" fill="url(#paint13_linear_186_744)"></path>
<path d="M29.4721 148.928C16.8465 147.503 12.5022 133.74 11.9083 127.037C26.5703 122.354 47.5449 139.68 56.1995 148.928C52.551 149.522 42.0977 150.354 29.4721 148.928Z" fill="url(#paint14_linear_186_744)"></path>
<path d="M55.1812 117.99C39.3144 109.505 7.6316 97.6261 7.83527 117.99C8.03894 138.354 39.4841 126.475 55.1812 117.99Z" fill="url(#paint15_linear_186_744)"></path>
<path d="M85.711 228.867C93.2583 239.089 107.797 235.153 113.899 232.316C110.625 217.276 87.8659 208.829 75.5291 205.958C76.839 209.415 78.1637 218.646 85.711 228.867Z" fill="url(#paint16_linear_186_744)"></path>
<path d="M90.2928 214.358C91.7183 226.984 105.481 231.328 112.184 231.922C116.868 217.26 99.5414 196.285 90.2928 187.631C89.6989 191.279 88.8674 201.732 90.2928 214.358Z" fill="url(#paint17_linear_186_744)"></path>
<path d="M154.323 228.867C146.775 239.089 132.236 235.153 126.134 232.316C129.409 217.276 152.168 208.829 164.504 205.958C163.195 209.415 161.87 218.646 154.323 228.867Z" fill="url(#paint18_linear_186_744)"></path>
<path d="M149.741 214.358C148.315 226.984 134.553 231.328 127.85 231.922C123.166 217.26 140.492 196.285 149.741 187.631C150.335 191.279 151.166 201.732 149.741 214.358Z" fill="url(#paint19_linear_186_744)"></path>
<path d="M118.802 188.649C110.317 204.516 98.4383 236.198 118.802 235.995C139.166 235.791 127.287 204.346 118.802 188.649Z" fill="url(#paint20_linear_186_744)"></path>
<circle cx="121.231" cy="121.915" r="31.2113" fill="url(#paint21_radial_186_744)" stroke="#65A9D0"></circle>
<path fill-rule="evenodd" clip-rule="evenodd" d="M146.445 61.9614C146.489 62.323 146.659 63.844 146.721 64.1588C146.893 65.0328 147.171 65.8119 147.758 66.9541C151.777 74.7671 152.618 80.423 152.168 84.5848C151.718 88.7466 149.977 91.3584 148.989 93.0327L148.959 93.0809L122.652 120.625L121.627 121.698L121.661 120.216L122.543 82.2778L122.557 82.2225C123.042 80.3399 123.659 77.2618 126.284 74.0012C128.909 70.7406 133.504 67.338 141.871 64.6576C143.095 64.2658 143.842 63.9105 144.582 63.4146C144.883 63.2125 146.114 62.224 146.445 61.9614ZM145.139 64.2451C145.311 64.1299 145.482 64.0052 145.657 63.8742C145.683 64.0374 145.709 64.1963 145.74 64.3519C145.934 65.3392 146.249 66.2083 146.868 67.4121C150.824 75.1014 151.598 80.5599 151.174 84.4777C150.754 88.3569 149.158 90.7828 148.157 92.4742L122.687 119.143L123.54 82.4162C124.028 80.5121 124.616 77.6681 127.063 74.6288C129.534 71.5594 133.942 68.2483 142.177 65.6103C143.466 65.1973 144.303 64.8054 145.139 64.2451Z" fill="#4B3F6D"></path>
<path fill-rule="evenodd" clip-rule="evenodd" d="M180.325 96.0127C180.103 96.3015 179.16 97.5071 178.984 97.7753C178.495 98.5199 178.147 99.2703 177.767 100.497C175.168 108.89 171.81 113.518 168.575 116.175C165.34 118.831 162.268 119.478 160.39 119.982L160.336 119.996L122.268 121.249L120.785 121.298L121.847 120.264L149.034 93.7887L149.083 93.759C150.747 92.7546 153.342 90.988 157.499 90.4971C161.656 90.0065 167.32 90.7934 175.171 94.7364C176.319 95.3129 177.101 95.5824 177.977 95.746C178.334 95.8127 179.905 95.9687 180.325 96.0127ZM177.793 96.7291C177.997 96.7671 178.206 96.7978 178.423 96.8272C178.327 96.9616 178.235 97.0936 178.148 97.2262C177.596 98.0673 177.212 98.9083 176.811 100.201C174.253 108.462 170.985 112.902 167.94 115.403C164.924 117.879 162.087 118.494 160.187 119.001L123.33 120.215L149.649 94.5856C151.331 93.5675 153.741 91.948 157.616 91.4904C161.529 91.0284 166.995 91.7497 174.722 95.6303C175.932 96.2378 176.804 96.5442 177.793 96.7291Z" fill="#4B3F6D"></path>
<path fill-rule="evenodd" clip-rule="evenodd" d="M182.197 144.339C181.836 144.391 180.319 144.596 180.006 144.665C179.136 144.857 178.363 145.152 177.235 145.765C169.515 149.961 163.88 150.93 159.709 150.574C155.538 150.219 152.887 148.538 151.191 147.588L151.142 147.559L123.008 121.884L121.912 120.884L123.394 120.885L161.343 120.904L161.398 120.917C163.291 121.36 166.383 121.906 169.702 124.457C173.021 127.007 176.527 131.524 179.397 139.828C179.817 141.042 180.189 141.781 180.701 142.509C180.91 142.806 181.926 144.014 182.197 144.339ZM179.884 143.085C180.003 143.254 180.131 143.422 180.266 143.595C180.104 143.624 179.946 143.654 179.791 143.688C178.808 143.905 177.946 144.24 176.757 144.886C169.159 149.015 163.72 149.913 159.793 149.578C155.906 149.247 153.444 147.706 151.73 146.743L124.491 121.885L161.227 121.904C163.142 122.349 165.998 122.872 169.092 125.249C172.217 127.65 175.627 131.982 178.452 140.155C178.894 141.434 179.305 142.262 179.884 143.085Z" fill="#4B3F6D"></path>
<path fill-rule="evenodd" clip-rule="evenodd" d="M148.86 178.84C148.564 178.628 147.328 177.725 147.054 177.558C146.294 177.094 145.532 176.772 144.293 176.432C135.819 174.111 131.084 170.907 128.322 167.761C125.56 164.615 124.813 161.567 124.247 159.706L124.231 159.652L121.724 121.646L121.627 120.165L122.696 121.193L150.052 147.493L150.083 147.541C151.142 149.171 152.993 151.707 153.62 155.846C154.248 159.984 153.648 165.671 149.966 173.648C149.427 174.814 149.184 175.605 149.049 176.485C148.994 176.844 148.89 178.419 148.86 178.84ZM148.06 176.334C148.029 176.538 148.005 176.749 147.983 176.967C147.846 176.875 147.711 176.787 147.575 176.705C146.716 176.18 145.863 175.825 144.558 175.467C136.218 173.182 131.672 170.062 129.073 167.101C126.498 164.169 125.79 161.353 125.221 159.471L122.793 122.674L149.276 148.134C150.349 149.781 152.047 152.137 152.632 155.995C153.222 159.891 152.681 165.378 149.057 173.228C148.49 174.457 148.213 175.339 148.06 176.334Z" fill="#4B3F6D"></path>
<path fill-rule="evenodd" clip-rule="evenodd" d="M95.9873 63.0651C95.9524 63.4276 95.8186 64.9524 95.7642 65.2685C95.6132 66.1464 95.355 66.932 94.7951 68.0881C90.9657 75.9958 90.2613 81.6703 90.812 85.8201C91.3628 89.9698 93.1662 92.5388 94.1945 94.1888L94.2251 94.2362L121.189 121.137L122.24 122.185L122.17 120.704L120.373 82.7986L120.358 82.7436C119.827 80.8734 119.136 77.811 116.433 74.6147C113.73 71.4185 109.054 68.1278 100.625 65.6501C99.3925 65.288 98.6367 64.9508 97.8852 64.4729C97.579 64.2781 96.3244 63.3197 95.9873 63.0651ZM97.3484 65.3166C97.1738 65.2056 96.9998 65.0851 96.821 64.9584C96.7996 65.1222 96.7768 65.2816 96.7499 65.4379C96.5794 66.4296 96.2857 67.306 95.6957 68.5245C91.9269 76.307 91.2846 81.7826 91.803 85.689C92.3165 89.557 93.9706 91.9436 95.0128 93.6103L121.119 119.656L119.38 82.9611C118.846 81.0693 118.189 78.2403 115.67 75.2609C113.125 72.2521 108.639 69.0483 100.343 66.6099C99.044 66.2282 98.1973 65.8565 97.3484 65.3166Z" fill="#4B3F6D"></path>
<path fill-rule="evenodd" clip-rule="evenodd" d="M62.9393 97.9245C63.1682 98.2079 64.14 99.3903 64.3225 99.6542C64.8292 100.387 65.1948 101.129 65.6042 102.346C68.4052 110.674 71.8746 115.219 75.1727 117.797C78.471 120.375 81.5572 120.947 83.4466 121.405L83.5017 121.418L121.589 121.752L123.073 121.765L121.986 120.757L94.1675 94.9458L94.1181 94.9173C92.4297 93.9534 89.7928 92.2499 85.6251 91.8596C81.4573 91.4694 75.8144 92.3928 68.0606 96.5242C66.9271 97.1282 66.1514 97.4165 65.2801 97.6013C64.9252 97.6765 63.3583 97.8704 62.9393 97.9245ZM65.4874 98.5796C65.285 98.6225 65.0765 98.6582 64.8601 98.6929C64.9594 98.8249 65.0548 98.9547 65.145 99.0851C65.7174 99.9127 66.1212 100.744 66.5528 102.027C69.3095 110.223 72.6839 114.583 75.7887 117.01C78.8631 119.412 81.7149 119.959 83.626 120.42L120.502 120.744L93.5719 95.7573C91.8662 94.7801 89.4172 93.2193 85.5324 92.8553C81.609 92.488 76.1622 93.341 68.531 97.407C67.3364 98.0435 66.4716 98.3709 65.4874 98.5796Z" fill="#4B3F6D"></path>
<path fill-rule="evenodd" clip-rule="evenodd" d="M62.2348 146.282C62.5965 146.325 64.1178 146.493 64.4326 146.555C65.3068 146.726 66.0864 147.002 67.2294 147.588C75.0481 151.596 80.7052 152.429 84.8664 151.973C89.0275 151.516 91.6369 149.772 93.3098 148.781L93.3579 148.751L120.864 122.405L121.936 121.378L120.454 121.415L82.517 122.351L82.4616 122.365C80.5798 122.853 77.5026 123.474 74.2457 126.104C70.9889 128.733 67.5929 133.334 64.9245 141.704C64.5344 142.928 64.1802 143.676 63.6853 144.416C63.4837 144.718 62.497 145.951 62.2348 146.282ZM64.5166 144.972C64.4016 145.144 64.2773 145.316 64.1465 145.491C64.3098 145.517 64.4686 145.543 64.6243 145.573C65.6118 145.766 66.4814 146.08 67.6861 146.697C75.3811 150.642 80.8407 151.408 84.7578 150.979C88.6365 150.553 91.06 148.954 92.75 147.95L119.382 122.442L82.6568 123.347C80.7534 123.838 77.9102 124.43 74.8744 126.881C71.8086 129.357 68.5038 133.77 65.8776 142.008C65.4665 143.298 65.0757 144.136 64.5166 144.972Z" fill="#4B3F6D"></path>
<path fill-rule="evenodd" clip-rule="evenodd" d="M96.3947 179.969C96.6854 179.749 97.8993 178.817 98.169 178.643C98.9179 178.161 99.6713 177.82 100.902 177.451C109.317 174.926 113.974 171.608 116.659 168.396C119.344 165.185 120.018 162.119 120.538 160.246L120.553 160.191L122.142 122.136L122.203 120.653L121.16 121.706L94.4464 148.659L94.4162 148.708C93.3972 150.363 91.6078 152.943 91.0804 157.095C90.5531 161.248 91.2902 166.918 95.1639 174.804C95.7301 175.957 95.9928 176.741 96.1487 177.618C96.2122 177.976 96.3544 179.548 96.3947 179.969ZM97.1333 177.443C97.1696 177.647 97.1984 177.857 97.2259 178.074C97.3611 177.979 97.494 177.888 97.6273 177.802C98.4733 177.257 99.3176 176.881 100.614 176.492C108.897 174.007 113.365 170.778 115.893 167.755C118.396 164.761 119.036 161.929 119.559 160.034L121.098 123.189L95.2377 149.281C94.205 150.954 92.5643 153.35 92.0725 157.221C91.5761 161.13 92.2493 166.602 96.0617 174.363C96.6585 175.578 96.9572 176.453 97.1333 177.443Z" fill="#4B3F6D"></path>
<defs>
<radialGradient id="paint0_radial_186_744" cx="0" cy="0" r="1" gradientUnits="userSpaceOnUse" gradientTransform="translate(120.017 119.204) rotate(90) scale(108.234)">
<stop stop-color="#0979C2"></stop>
<stop offset="0.700798" stop-color="#BBDBF0"></stop>
</radialGradient>
<linearGradient id="paint1_linear_186_744" x1="156.738" y1="42.356" x2="135.732" y2="5.97282" gradientUnits="userSpaceOnUse">
<stop stop-color="#6652A0"></stop>
<stop offset="1" stop-color="#482D97"></stop>
</linearGradient>
<linearGradient id="paint2_linear_186_744" x1="145.28" y1="56.1995" x2="138.795" y2="11.9083" gradientUnits="userSpaceOnUse">
<stop stop-color="#A787FF"></stop>
<stop offset="1" stop-color="#5D41AA"></stop>
</linearGradient>
<linearGradient id="paint3_linear_186_744" x1="83.2955" y1="42.356" x2="104.301" y2="5.97282" gradientUnits="userSpaceOnUse">
<stop stop-color="#6652A0"></stop>
<stop offset="1" stop-color="#482D97"></stop>
</linearGradient>
<linearGradient id="paint4_linear_186_744" x1="94.7542" y1="56.1995" x2="101.239" y2="11.9083" gradientUnits="userSpaceOnUse">
<stop stop-color="#A787FF"></stop>
<stop offset="1" stop-color="#5D41AA"></stop>
</linearGradient>
<linearGradient id="paint5_linear_186_744" x1="121.231" y1="55.1812" x2="121.231" y2="7.83429" gradientUnits="userSpaceOnUse">
<stop stop-color="#CBBAFF"></stop>
<stop offset="1" stop-color="#8C6CE7"></stop>
</linearGradient>
<linearGradient id="paint6_linear_186_744" x1="199.573" y1="155.926" x2="235.956" y2="134.92" gradientUnits="userSpaceOnUse">
<stop stop-color="#6652A0"></stop>
<stop offset="1" stop-color="#482D97"></stop>
</linearGradient>
<linearGradient id="paint7_linear_186_744" x1="185.73" y1="144.467" x2="230.021" y2="137.982" gradientUnits="userSpaceOnUse">
<stop stop-color="#A787FF"></stop>
<stop offset="1" stop-color="#5D41AA"></stop>
</linearGradient>
<linearGradient id="paint8_linear_186_744" x1="199.573" y1="82.4831" x2="235.956" y2="103.489" gradientUnits="userSpaceOnUse">
<stop stop-color="#6652A0"></stop>
<stop offset="1" stop-color="#482D97"></stop>
</linearGradient>
<linearGradient id="paint9_linear_186_744" x1="185.73" y1="93.9417" x2="230.021" y2="100.427" gradientUnits="userSpaceOnUse">
<stop stop-color="#A787FF"></stop>
<stop offset="1" stop-color="#5D41AA"></stop>
</linearGradient>
<linearGradient id="paint10_linear_186_744" x1="186.748" y1="120.419" x2="234.095" y2="120.419" gradientUnits="userSpaceOnUse">
<stop stop-color="#CBBAFF"></stop>
<stop offset="1" stop-color="#8C6CE7"></stop>
</linearGradient>
<linearGradient id="paint11_linear_186_744" x1="42.356" y1="82.4832" x2="5.97282" y2="103.489" gradientUnits="userSpaceOnUse">
<stop stop-color="#6652A0"></stop>
<stop offset="1" stop-color="#482D97"></stop>
</linearGradient>
<linearGradient id="paint12_linear_186_744" x1="56.1995" y1="93.9418" x2="11.9083" y2="100.427" gradientUnits="userSpaceOnUse">
<stop stop-color="#A787FF"></stop>
<stop offset="1" stop-color="#5D41AA"></stop>
</linearGradient>
<linearGradient id="paint13_linear_186_744" x1="42.356" y1="155.926" x2="5.97282" y2="134.92" gradientUnits="userSpaceOnUse">
<stop stop-color="#6652A0"></stop>
<stop offset="1" stop-color="#482D97"></stop>
</linearGradient>
<linearGradient id="paint14_linear_186_744" x1="56.1995" y1="144.467" x2="11.9083" y2="137.982" gradientUnits="userSpaceOnUse">
<stop stop-color="#A787FF"></stop>
<stop offset="1" stop-color="#5D41AA"></stop>
</linearGradient>
<linearGradient id="paint15_linear_186_744" x1="55.1812" y1="117.99" x2="7.83429" y2="117.99" gradientUnits="userSpaceOnUse">
<stop stop-color="#CBBAFF"></stop>
<stop offset="1" stop-color="#8C6CE7"></stop>
</linearGradient>
<linearGradient id="paint16_linear_186_744" x1="83.2955" y1="201.474" x2="104.301" y2="237.857" gradientUnits="userSpaceOnUse">
<stop stop-color="#6652A0"></stop>
<stop offset="1" stop-color="#482D97"></stop>
</linearGradient>
<linearGradient id="paint17_linear_186_744" x1="94.7541" y1="187.631" x2="101.239" y2="231.922" gradientUnits="userSpaceOnUse">
<stop stop-color="#A787FF"></stop>
<stop offset="1" stop-color="#5D41AA"></stop>
</linearGradient>
<linearGradient id="paint18_linear_186_744" x1="156.738" y1="201.474" x2="135.732" y2="237.857" gradientUnits="userSpaceOnUse">
<stop stop-color="#6652A0"></stop>
<stop offset="1" stop-color="#482D97"></stop>
</linearGradient>
<linearGradient id="paint19_linear_186_744" x1="145.279" y1="187.631" x2="138.795" y2="231.922" gradientUnits="userSpaceOnUse">
<stop stop-color="#A787FF"></stop>
<stop offset="1" stop-color="#5D41AA"></stop>
</linearGradient>
<linearGradient id="paint20_linear_186_744" x1="118.802" y1="188.649" x2="118.802" y2="235.996" gradientUnits="userSpaceOnUse">
<stop stop-color="#CBBAFF"></stop>
<stop offset="1" stop-color="#8C6CE7"></stop>
</linearGradient>
<radialGradient id="paint21_radial_186_744" cx="0" cy="0" r="1" gradientUnits="userSpaceOnUse" gradientTransform="translate(121.231 121.915) rotate(90) scale(31.7113)">
<stop stop-color="#F47526"></stop>
<stop offset="1" stop-color="#EFA16D"></stop>
</radialGradient>
</defs>
</svg>